<svg version="1.1" id="Layer_1" xmlns="http://www.w3.org/2000/svg" xmlns:xlink="http://www.w3.org/1999/xlink" x="0px" y="0px"
	 width="100%" viewBox="0 0 1080 1080" enable-background="new 0 0 1080 1080" xml:space="preserve">
<path fill="#FFFF" opacity="1.000000" stroke="none"
	d="
M602.000000,1081.000000 
	C401.356445,1081.000000 201.212860,1081.000000 1.034647,1081.000000 
	C1.034647,721.064636 1.034647,361.129272 1.034647,1.096960 
	C360.893768,1.096960 720.787598,1.096960 1080.840698,1.096960 
	C1080.840698,360.999939 1080.840698,720.999939 1080.840698,1081.000000 
	C921.462158,1081.000000 761.981079,1081.000000 602.000000,1081.000000 
M452.457458,584.016174 
	C462.051788,584.083374 469.762665,579.500732 476.682831,573.594543 
	C482.206390,568.880310 487.178223,563.519592 492.550018,558.294983 
	C499.007050,574.051575 510.319397,582.806030 527.416687,584.038025 
	C544.154663,585.244202 557.384460,578.283875 567.621155,567.922729 
	C575.924805,572.268677 583.036377,577.010010 590.838257,579.864197 
	C607.605469,585.998230 625.085999,585.966309 642.576355,583.430115 
	C653.726990,581.813354 664.064758,578.049316 673.760193,572.109985 
	C698.326355,557.060913 706.147278,512.956726 670.434448,494.372955 
	C661.001160,489.464203 651.043762,485.572205 641.413147,481.030548 
	C633.006897,477.066315 624.208984,473.628662 616.488953,468.575867 
	C599.866455,457.696411 603.643372,436.306824 616.720276,429.589630 
	C632.241882,421.616577 648.415100,421.455658 664.501953,427.881531 
	C671.336182,430.611450 674.816223,436.051910 674.114990,443.722534 
	C673.706543,448.189850 673.167969,452.662292 673.095032,457.139069 
	C672.999512,462.996399 676.472534,467.268646 682.094543,468.854126 
	C689.898865,471.055023 697.260925,467.505859 699.858032,459.273834 
	C706.714478,437.540863 701.745178,416.052490 677.261230,406.160248 
	C652.776489,396.267700 627.848389,397.143341 604.075989,408.447449 
	C579.849670,419.967346 571.318604,443.225555 577.237122,465.729645 
	C580.811157,479.319702 590.575562,488.225586 602.540466,494.577820 
	C610.604797,498.859222 619.246277,502.038910 627.502136,505.978424 
	C637.075806,510.546814 647.216431,514.389893 655.840271,520.377930 
	C669.033813,529.539001 667.222839,548.070190 652.798889,555.176270 
	C635.259460,563.817200 617.014832,563.013855 598.979248,556.587402 
	C591.632996,553.969727 587.949768,548.252930 588.759277,540.160828 
	C589.056885,537.185791 589.369751,534.211487 589.741516,531.245056 
	C590.566772,524.660889 588.608215,520.185608 583.739136,517.657715 
	C576.309387,513.800415 567.110229,516.341370 563.704773,523.970581 
	C561.722290,528.411926 559.912292,533.693481 560.434753,538.325134 
	C561.416321,547.027588 556.826538,551.537415 550.688110,555.686707 
	C537.921204,564.316589 522.115417,560.764221 517.536987,547.856995 
	C512.413574,533.413269 513.966492,518.394470 514.166443,503.336182 
	C515.492981,503.189362 516.294678,503.026184 517.097046,503.023102 
	C526.430054,502.987274 535.768555,503.162964 545.094299,502.891632 
	C551.310608,502.710693 557.427124,501.611481 561.903320,496.597595 
	C565.051880,493.070831 565.858582,488.795929 564.356079,484.471710 
	C562.862183,480.172485 558.791321,481.024536 555.351074,481.008667 
	C548.796753,480.978455 542.242065,480.999908 535.687561,480.999908 
	C535.399414,480.482422 535.111206,479.964935 534.823059,479.447449 
	C536.414185,478.271271 538.173767,477.266235 539.570068,475.892090 
	C551.306519,464.342102 559.217896,450.596405 561.434937,434.206665 
	C562.955017,422.969086 563.553711,411.525696 556.237915,401.510437 
	C553.184448,397.330261 549.149963,395.187408 543.972168,394.910706 
	C531.233093,394.229889 523.162292,401.872375 516.188232,410.885040 
	C503.457458,427.337128 497.548676,446.743378 493.048004,466.670959 
	C492.061493,471.038971 492.560242,476.874084 489.886780,479.399963 
	C487.386658,481.762024 481.586700,480.662201 477.234009,481.025208 
	C471.324036,481.518036 468.076782,485.869385 468.217834,493.193085 
	C468.338013,499.433746 471.213684,502.661896 477.164154,502.947815 
	C480.609680,503.113373 484.069672,502.977966 487.254883,502.977966 
	C487.254883,513.255737 487.267731,522.884766 487.235168,532.513611 
	C487.231873,533.483398 487.303314,534.779846 486.749329,535.371704 
	C479.933289,542.652771 473.125793,549.950256 466.048126,556.973511 
	C463.407837,559.593567 459.379181,561.920593 456.212036,559.269165 
	C453.812408,557.260254 452.006958,553.055237 452.076569,549.874329 
	C452.253723,541.780579 453.310242,533.661316 454.606476,525.647888 
	C456.330048,514.993225 458.645599,504.435089 460.642822,493.823425 
	C461.435669,489.611053 461.106323,485.487885 456.574890,483.639038 
	C449.578583,480.784454 437.335876,481.501434 434.763641,492.711578 
	C432.090973,504.359467 429.465607,516.022034 427.097565,527.734375 
	C425.949951,533.410645 427.069397,540.230225 424.268951,544.732361 
	C419.668121,552.128845 412.834625,558.366028 403.433685,559.866699 
	C397.443695,560.822876 391.709747,560.285706 388.073822,554.287048 
	C384.212463,547.916504 384.582489,544.614197 389.326660,537.694885 
	C410.174103,507.289398 427.704407,475.298492 435.350952,438.771118 
	C438.203156,425.146118 439.146576,411.386444 435.006317,397.808075 
	C429.517303,379.806305 413.339050,374.284607 398.811737,386.219666 
	C392.564789,391.351929 386.919800,398.182709 383.307251,405.396576 
	C362.331848,447.282104 355.006714,491.970612 357.734192,538.513977 
	C357.813995,539.875793 357.582367,541.740662 356.723633,542.592957 
	C351.654877,547.623962 346.694000,552.867310 341.035309,557.169067 
	C336.077484,560.937988 330.100555,561.180176 324.338562,558.910767 
	C324.268005,558.192017 324.178009,557.982178 324.246674,557.867004 
	C325.097382,556.439026 326.004395,555.043945 326.833984,553.604187 
	C335.343597,538.834595 339.347473,523.088745 335.840759,506.159302 
	C333.385498,494.305908 327.033478,485.151733 314.384735,482.516998 
	C304.521118,480.462433 296.047394,484.083069 288.769928,490.720856 
	C286.641296,492.662354 284.645233,494.749207 282.318420,497.034607 
	C281.819092,492.951172 281.681488,489.602783 280.903625,486.410400 
	C280.519348,484.833252 279.262268,483.001404 277.873199,482.212219 
	C268.838379,477.079285 254.914719,485.301147 254.938583,495.627869 
	C254.968643,508.627533 255.143295,521.628357 254.996063,534.625732 
	C254.967697,537.129639 254.238754,539.905334 252.993179,542.073120 
	C238.096268,568.000122 224.886459,594.626831 218.577652,624.130920 
	C215.750473,637.352722 213.745621,650.701782 217.155487,664.128235 
	C220.906555,678.898132 233.943237,685.614441 247.556213,679.814758 
	C254.243484,676.965698 258.915314,671.761841 262.251068,665.404114 
	C271.606842,647.572693 275.130920,628.106323 277.902130,608.468506 
	C279.032715,600.456482 279.696472,592.378601 280.413696,585.790710 
	C288.551453,582.909851 295.801422,580.201050 303.166473,577.853149 
	C304.681091,577.370300 307.020691,577.674622 308.301514,578.578064 
	C313.219727,582.047241 318.386475,584.021179 324.527527,584.095520 
	C334.851501,584.220459 343.803925,580.793457 351.773468,574.567505 
	C356.041321,571.233337 360.014618,567.522156 364.197876,563.914673 
	C375.219727,589.041443 405.652893,590.819275 428.967041,569.118286 
	C433.258514,579.022339 440.639404,584.299866 452.457458,584.016174 
M894.146179,536.572021 
	C893.939392,539.037842 894.685181,542.399841 893.357544,543.811279 
	C888.168640,549.327332 882.729736,554.797974 876.585022,559.160400 
	C872.266357,562.226440 867.857788,559.184204 867.950500,553.732300 
	C868.046326,548.101685 868.554749,542.434204 869.433411,536.869751 
	C871.350342,524.730286 873.692566,512.658630 875.709900,500.534058 
	C876.788086,494.053711 874.272827,490.693665 867.809631,489.880157 
	C865.380798,489.574463 862.852783,489.721802 860.405151,489.987000 
	C857.423767,490.310059 855.660950,489.753143 854.314331,486.532440 
	C853.495544,484.573853 850.636108,482.733673 848.401917,482.282257 
	C845.416870,481.679108 842.074646,482.106934 839.014709,482.727661 
	C814.505371,487.699493 793.378906,510.784851 790.375549,537.384277 
	C789.405701,545.973511 785.882446,551.252197 778.778137,554.853699 
	C774.643250,556.949829 770.479370,559.472229 766.036743,560.389160 
	C751.522705,563.385010 739.992920,559.993225 737.387878,543.511047 
	C735.739502,533.082153 737.119385,522.763794 742.489929,513.565002 
	C744.551270,510.034302 748.124451,507.061890 751.644653,504.845001 
	C753.390686,503.745453 757.201843,504.083191 758.917542,505.346985 
	C760.350159,506.402252 760.431763,509.747192 760.475769,512.090088 
	C760.511841,514.016296 759.403381,515.935547 759.175781,517.901184 
	C758.755127,521.534912 758.023560,525.580688 762.048584,527.715942 
	C766.313477,529.978577 770.837402,529.910645 774.687683,526.709106 
	C776.553711,525.157532 778.272278,523.109253 779.303345,520.929138 
	C783.367065,512.336182 783.423828,503.551239 779.422729,494.901581 
	C776.327087,488.209381 770.833435,484.373169 763.690063,483.094330 
	C750.253540,480.688782 738.672729,485.006195 728.745483,493.816803 
	C713.819580,507.063721 708.452087,524.409363 709.363220,543.700073 
	C710.098511,559.267883 716.607727,572.146423 731.191772,579.333313 
	C743.868408,585.580261 757.353699,585.843079 770.560730,581.421448 
	C778.651917,578.712524 786.220459,574.442200 794.188110,570.797852 
	C811.793884,590.333618 825.057251,589.575745 846.697998,567.351318 
	C857.919312,588.686157 874.904846,589.695251 895.604980,570.590576 
	C896.375671,572.640198 897.035950,574.657959 897.882141,576.594482 
	C899.922485,581.263794 903.279663,583.962036 908.634521,584.046997 
	C914.324036,584.137268 918.885315,582.452332 921.008240,576.790161 
	C922.520935,572.755554 923.819580,568.624878 924.948303,564.465027 
	C929.118347,549.097229 934.912781,534.432495 944.269043,521.455933 
	C945.974915,519.090088 949.328979,517.912598 951.922241,516.186523 
	C952.203125,519.202698 953.080383,522.305603 952.657043,525.219421 
	C951.177246,535.404297 948.824707,545.472961 947.596863,555.681213 
	C946.048523,568.553955 950.575806,581.012024 963.466797,583.429077 
	C967.951416,584.269958 972.846741,584.262146 977.343384,583.459351 
	C994.677673,580.364441 1005.894287,568.452209 1015.678345,555.131226 
	C1019.002563,550.605286 1018.900940,544.684509 1017.119507,539.229980 
	C1015.701294,534.887756 1011.819336,533.644409 1008.006531,536.184448 
	C1006.794617,536.991699 1005.915161,538.292114 1004.863342,539.346741 
	C998.652649,545.574097 992.693054,552.092163 986.063660,557.836975 
	C984.091003,559.546387 979.541138,560.368958 977.437195,559.240112 
	C975.420532,558.158081 973.952942,553.932068 974.160217,551.235046 
	C974.717773,543.980774 976.240967,536.795105 977.487244,529.600708 
	C979.187927,519.783325 981.242188,510.020142 982.675110,500.165436 
	C984.226562,489.496399 979.436523,483.043854 969.584229,482.447998 
	C966.384705,482.254517 962.920410,483.064423 959.878601,484.213348 
	C945.485107,489.649750 936.741333,501.148102 929.232605,513.762878 
	C926.396484,518.527710 924.101318,523.614624 921.559509,528.554749 
	C920.949524,525.850159 920.960449,523.371887 921.471313,521.001221 
	C923.710632,510.609833 926.086182,500.247681 928.430420,489.878998 
	C929.406189,485.563202 927.665649,482.948090 923.349548,482.538788 
	C913.549622,481.609467 904.292480,484.512054 901.949646,495.122559 
	C898.984070,508.553162 896.731934,522.141296 894.146179,536.572021 
M149.187576,405.615875 
	C140.010971,409.142456 132.089005,414.430817 125.570648,421.878601 
	C111.327812,438.152222 110.015488,467.544861 126.937866,483.794312 
	C136.992096,493.448730 149.379898,498.433533 161.632660,504.045502 
	C173.081070,509.289062 184.998734,513.988098 195.412918,520.885071 
	C207.728134,529.041077 205.992111,547.601501 192.862411,554.528748 
	C187.116898,557.560059 180.466782,559.562195 174.013321,560.419189 
	C161.740509,562.049133 149.396545,561.619568 137.730865,556.541443 
	C130.742096,553.499207 127.032913,548.282654 127.748375,540.406067 
	C128.109131,536.434570 128.676498,532.470764 128.809738,528.492126 
	C129.018265,522.265076 126.112488,518.490784 120.161774,516.719604 
	C110.527122,513.851990 102.306870,519.583069 100.109993,530.699585 
	C95.549576,553.775879 105.593834,571.408386 127.865562,579.364197 
	C145.383347,585.621826 163.374039,586.042236 181.548935,583.433960 
	C192.699814,581.833801 203.035751,578.056885 212.736847,572.125061 
	C237.315704,557.096130 245.153702,512.974854 209.457535,494.386871 
	C200.025620,489.475403 190.069321,485.580200 180.438568,481.038605 
	C172.032211,477.074432 163.234787,473.638397 155.510376,468.591278 
	C138.870087,457.718536 142.637009,436.326813 155.698135,429.603699 
	C171.215118,421.616394 187.388321,421.460022 203.478378,427.870789 
	C210.312256,430.593628 213.811966,436.021912 213.115265,443.696564 
	C212.709686,448.164246 212.169998,452.636383 212.094666,457.113312 
	C211.995956,462.981750 215.451828,467.253448 221.069397,468.849243 
	C228.866440,471.064209 236.248901,467.523132 238.849152,459.297638 
	C245.710983,437.591034 240.714798,416.255127 216.300842,406.125519 
	C194.442459,397.056274 172.123001,398.084412 149.187576,405.615875 
M528.505798,777.221924 
	C520.218445,777.462830 511.746460,778.432068 506.028015,770.209412 
	C505.242004,769.079163 503.579681,768.532532 502.281616,767.788086 
	C482.286163,756.319824 461.926086,757.032288 441.579102,766.499329 
	C434.810547,769.648560 428.146179,768.771545 421.230377,768.678467 
	C421.129486,767.035461 421.030823,766.045410 421.013763,765.053833 
	C420.882050,757.399231 420.393555,756.904114 412.662933,756.895874 
	C401.832703,756.884338 391.002289,756.860840 380.172272,756.906860 
	C374.120392,756.932617 373.021759,757.987061 373.016541,763.787231 
	C372.992157,790.946167 372.991425,818.105042 373.017181,845.263977 
	C373.022705,851.076050 374.114471,852.086548 380.185211,852.102417 
	C390.515503,852.129395 400.845947,852.110291 411.176331,852.109924 
	C420.671600,852.109558 420.665588,852.109009 421.044434,842.451294 
	C421.068970,841.826050 421.293427,841.208679 421.590912,839.803345 
	C427.408386,840.184204 433.448364,839.548401 438.846252,841.119202 
	C457.836914,846.645630 476.656128,852.781067 495.443939,858.977966 
	C508.555542,863.302551 521.810669,866.098877 535.620544,863.916931 
	C546.467590,862.203247 557.166077,860.110474 566.061218,852.649597 
	C579.319824,841.528931 592.922913,830.819519 606.343079,819.890503 
	C617.828552,810.537048 629.405762,801.287964 640.669678,791.673340 
	C648.075562,785.351746 648.368835,773.073364 641.832825,765.510498 
	C635.754700,758.477417 626.328247,757.934631 618.199219,764.264343 
	C613.209961,768.149353 608.344116,772.192688 603.412354,776.151917 
	C595.528870,782.480530 587.636597,788.798157 579.416321,795.386353 
	C578.809753,793.888733 578.325745,793.031494 578.111084,792.111389 
	C576.157471,783.735596 571.161560,778.303833 562.434448,777.817505 
	C551.480408,777.207153 540.482422,777.384766 528.505798,777.221924 
M590.488464,662.032532 
	C568.729248,637.218201 530.825439,638.193237 509.548462,661.385498 
	C493.710785,678.648865 490.683624,703.729187 502.299072,724.393677 
	C514.019226,745.244385 535.133545,755.708984 559.734375,751.406494 
	C580.498047,747.775024 594.979858,734.939392 601.540161,714.885681 
	C607.764832,695.858215 603.817871,678.113525 590.488464,662.032532 
M444.439301,437.759033 
	C442.797272,439.142487 440.945923,440.342773 439.548431,441.940155 
	C432.298676,450.226898 435.244781,463.714630 445.422516,466.966248 
	C453.218506,469.456970 461.221313,469.189240 468.137177,463.802368 
	C474.106384,459.152863 474.908661,452.600677 473.862671,445.775330 
	C472.939423,439.750977 468.380493,436.593384 462.972565,435.479034 
	C456.973541,434.242828 450.746368,433.987213 444.439301,437.759033 
z"/>
<path fill="#FFD36B" opacity="1.000000" stroke="none" 
	d="
M451.998047,584.016113 
	C440.639404,584.299866 433.258514,579.022339 428.967041,569.118286 
	C405.652893,590.819275 375.219727,589.041443 364.197876,563.914673 
	C360.014618,567.522156 356.041321,571.233337 351.773468,574.567505 
	C343.803925,580.793457 334.851501,584.220459 324.527527,584.095520 
	C318.386475,584.021179 313.219727,582.047241 308.301514,578.578064 
	C307.020691,577.674622 304.681091,577.370300 303.166473,577.853149 
	C295.801422,580.201050 288.551453,582.909851 280.413696,585.790710 
	C279.696472,592.378601 279.032715,600.456482 277.902130,608.468506 
	C275.130920,628.106323 271.606842,647.572693 262.251068,665.404114 
	C258.915314,671.761841 254.243484,676.965698 247.556213,679.814758 
	C233.943237,685.614441 220.906555,678.898132 217.155487,664.128235 
	C213.745621,650.701782 215.750473,637.352722 218.577652,624.130920 
	C224.886459,594.626831 238.096268,568.000122 252.993179,542.073120 
	C254.238754,539.905334 254.967697,537.129639 254.996063,534.625732 
	C255.143295,521.628357 254.968643,508.627533 254.938583,495.627869 
	C254.914719,485.301147 268.838379,477.079285 277.873199,482.212219 
	C279.262268,483.001404 280.519348,484.833252 280.903625,486.410400 
	C281.681488,489.602783 281.819092,492.951172 282.318420,497.034607 
	C284.645233,494.749207 286.641296,492.662354 288.769928,490.720856 
	C296.047394,484.083069 304.521118,480.462433 314.384735,482.516998 
	C327.033478,485.151733 333.385498,494.305908 335.840759,506.159302 
	C339.347473,523.088745 335.343597,538.834595 326.833984,553.604187 
	C326.004395,555.043945 325.097382,556.439026 324.246674,557.867004 
	C324.178009,557.982178 324.268005,558.192017 324.338562,558.910767 
	C330.100555,561.180176 336.077484,560.937988 341.035309,557.169067 
	C346.694000,552.867310 351.654877,547.623962 356.723633,542.592957 
	C357.582367,541.740662 357.813995,539.875793 357.734192,538.513977 
	C355.006714,491.970612 362.331848,447.282104 383.307251,405.396576 
	C386.919800,398.182709 392.564789,391.351929 398.811737,386.219666 
	C413.339050,374.284607 429.517303,379.806305 435.006317,397.808075 
	C439.146576,411.386444 438.203156,425.146118 435.350952,438.771118 
	C427.704407,475.298492 410.174103,507.289398 389.326660,537.694885 
	C384.582489,544.614197 384.212463,547.916504 388.073822,554.287048 
	C391.709747,560.285706 397.443695,560.822876 403.433685,559.866699 
	C412.834625,558.366028 419.668121,552.128845 424.268951,544.732361 
	C427.069397,540.230225 425.949951,533.410645 427.097565,527.734375 
	C429.465607,516.022034 432.090973,504.359467 434.763641,492.711578 
	C437.335876,481.501434 449.578583,480.784454 456.574890,483.639038 
	C461.106323,485.487885 461.435669,489.611053 460.642822,493.823425 
	C458.645599,504.435089 456.330048,514.993225 454.606476,525.647888 
	C453.310242,533.661316 452.253723,541.780579 452.076569,549.874329 
	C452.006958,553.055237 453.812408,557.260254 456.212036,559.269165 
	C459.379181,561.920593 463.407837,559.593567 466.048126,556.973511 
	C473.125793,549.950256 479.933289,542.652771 486.749329,535.371704 
	C487.303314,534.779846 487.231873,533.483398 487.235168,532.513611 
	C487.267731,522.884766 487.254883,513.255737 487.254883,502.977966 
	C484.069672,502.977966 480.609680,503.113373 477.164154,502.947815 
	C471.213684,502.661896 468.338013,499.433746 468.217834,493.193085 
	C468.076782,485.869385 471.324036,481.518036 477.234009,481.025208 
	C481.586700,480.662201 487.386658,481.762024 489.886780,479.399963 
	C492.560242,476.874084 492.061493,471.038971 493.048004,466.670959 
	C497.548676,446.743378 503.457458,427.337128 516.188232,410.885040 
	C523.162292,401.872375 531.233093,394.229889 543.972168,394.910706 
	C549.149963,395.187408 553.184448,397.330261 556.237915,401.510437 
	C563.553711,411.525696 562.955017,422.969086 561.434937,434.206665 
	C559.217896,450.596405 551.306519,464.342102 539.570068,475.892090 
	C538.173767,477.266235 536.414185,478.271271 534.823059,479.447449 
	C535.111206,479.964935 535.399414,480.482422 535.687561,480.999908 
	C542.242065,480.999908 548.796753,480.978455 555.351074,481.008667 
	C558.791321,481.024536 562.862183,480.172485 564.356079,484.471710 
	C565.858582,488.795929 565.051880,493.070831 561.903320,496.597595 
	C557.427124,501.611481 551.310608,502.710693 545.094299,502.891632 
	C535.768555,503.162964 526.430054,502.987274 517.097046,503.023102 
	C516.294678,503.026184 515.492981,503.189362 514.166443,503.336182 
	C513.966492,518.394470 512.413574,533.413269 517.536987,547.856995 
	C522.115417,560.764221 537.921204,564.316589 550.688110,555.686707 
	C556.826538,551.537415 561.416321,547.027588 560.434753,538.325134 
	C559.912292,533.693481 561.722290,528.411926 563.704773,523.970581 
	C567.110229,516.341370 576.309387,513.800415 583.739136,517.657715 
	C588.608215,520.185608 590.566772,524.660889 589.741516,531.245056 
	C589.369751,534.211487 589.056885,537.185791 588.759277,540.160828 
	C587.949768,548.252930 591.632996,553.969727 598.979248,556.587402 
	C617.014832,563.013855 635.259460,563.817200 652.798889,555.176270 
	C667.222839,548.070190 669.033813,529.539001 655.840271,520.377930 
	C647.216431,514.389893 637.075806,510.546814 627.502136,505.978424 
	C619.246277,502.038910 610.604797,498.859222 602.540466,494.577820 
	C590.575562,488.225586 580.811157,479.319702 577.237122,465.729645 
	C571.318604,443.225555 579.849670,419.967346 604.075989,408.447449 
	C627.848389,397.143341 652.776489,396.267700 677.261230,406.160248 
	C701.745178,416.052490 706.714478,437.540863 699.858032,459.273834 
	C697.260925,467.505859 689.898865,471.055023 682.094543,468.854126 
	C676.472534,467.268646 672.999512,462.996399 673.095032,457.139069 
	C673.167969,452.662292 673.706543,448.189850 674.114990,443.722534 
	C674.816223,436.051910 671.336182,430.611450 664.501953,427.881531 
	C648.415100,421.455658 632.241882,421.616577 616.720276,429.589630 
	C603.643372,436.306824 599.866455,457.696411 616.488953,468.575867 
	C624.208984,473.628662 633.006897,477.066315 641.413147,481.030548 
	C651.043762,485.572205 661.001160,489.464203 670.434448,494.372955 
	C706.147278,512.956726 698.326355,557.060913 673.760193,572.109985 
	C664.064758,578.049316 653.726990,581.813354 642.576355,583.430115 
	C625.085999,585.966309 607.605469,585.998230 590.838257,579.864197 
	C583.036377,577.010010 575.924805,572.268677 567.621155,567.922729 
	C557.384460,578.283875 544.154663,585.244202 527.416687,584.038025 
	C510.319397,582.806030 499.007050,574.051575 492.550018,558.294983 
	C487.178223,563.519592 482.206390,568.880310 476.682831,573.594543 
	C469.762665,579.500732 462.051788,584.083374 451.998047,584.016113 
M391.521606,448.046112 
	C386.822510,469.476074 383.767914,491.098511 383.861847,513.214783 
	C389.573578,503.502411 394.921997,493.730469 399.595184,483.645660 
	C409.094269,463.146637 415.980865,441.853638 416.638763,419.031097 
	C416.770355,414.465759 415.980530,409.719543 414.720734,405.312531 
	C413.500427,401.043549 409.427612,400.578003 406.735168,404.183594 
	C404.866241,406.686310 403.097992,409.483368 402.166016,412.427826 
	C398.511902,423.972015 395.207611,435.626953 391.521606,448.046112 
M287.377319,512.884338 
	C283.229950,516.909912 281.397156,521.567078 281.740509,527.570251 
	C282.232849,536.179199 281.876190,544.839844 281.787109,553.477356 
	C281.755615,556.526367 281.445374,559.572449 281.227386,563.203003 
	C283.425232,562.567017 284.869110,562.297913 286.193451,561.743347 
	C301.597565,555.291748 314.456055,526.478638 309.045715,510.614868 
	C306.850006,504.176758 300.785187,501.891541 295.181122,505.707275 
	C292.479156,507.547028 290.257385,510.092010 287.377319,512.884338 
M236.143036,656.038696 
	C237.452805,657.374878 239.027267,659.974670 240.013779,659.767944 
	C241.738861,659.406616 243.687943,657.597900 244.492828,655.898254 
	C246.041550,652.627869 247.401825,649.083862 247.882782,645.523987 
	C250.060181,629.407898 251.972275,613.254639 253.815567,597.095947 
	C254.247925,593.305847 253.961960,589.438965 254.149689,585.614380 
	C254.335968,581.820129 254.702927,578.034851 254.990646,574.245605 
	C246.895859,591.312134 239.977280,608.636719 237.129700,627.107117 
	C235.708008,636.328674 236.271744,645.856201 236.143036,656.038696 
M525.345703,468.817719 
	C526.158569,467.762665 526.996887,466.726135 527.780396,465.649689 
	C536.407288,453.796906 542.063599,440.818848 541.724670,425.909821 
	C541.645325,422.417603 542.407715,417.152527 537.677856,416.187622 
	C533.094482,415.252502 531.211914,419.967834 530.036987,423.387024 
	C526.427795,433.890747 523.057983,444.500824 520.206848,455.232086 
	C518.451294,461.839752 517.813049,468.744324 516.673157,475.515594 
	C517.141846,475.755707 517.610535,475.995819 518.079163,476.235931 
	C520.350830,473.947388 522.622498,471.658844 525.345703,468.817719 
z"/>
<path fill="#FFD36B" opacity="1.000000" stroke="none" 
	d="
M894.159180,536.116760 
	C896.731934,522.141296 898.984070,508.553162 901.949646,495.122559 
	C904.292480,484.512054 913.549622,481.609467 923.349548,482.538788 
	C927.665649,482.948090 929.406189,485.563202 928.430420,489.878998 
	C926.086182,500.247681 923.710632,510.609833 921.471313,521.001221 
	C920.960449,523.371887 920.949524,525.850159 921.559509,528.554749 
	C924.101318,523.614624 926.396484,518.527710 929.232605,513.762878 
	C936.741333,501.148102 945.485107,489.649750 959.878601,484.213348 
	C962.920410,483.064423 966.384705,482.254517 969.584229,482.447998 
	C979.436523,483.043854 984.226562,489.496399 982.675110,500.165436 
	C981.242188,510.020142 979.187927,519.783325 977.487244,529.600708 
	C976.240967,536.795105 974.717773,543.980774 974.160217,551.235046 
	C973.952942,553.932068 975.420532,558.158081 977.437195,559.240112 
	C979.541138,560.368958 984.091003,559.546387 986.063660,557.836975 
	C992.693054,552.092163 998.652649,545.574097 1004.863342,539.346741 
	C1005.915161,538.292114 1006.794617,536.991699 1008.006531,536.184448 
	C1011.819336,533.644409 1015.701294,534.887756 1017.119507,539.229980 
	C1018.900940,544.684509 1019.002563,550.605286 1015.678345,555.131226 
	C1005.894287,568.452209 994.677673,580.364441 977.343384,583.459351 
	C972.846741,584.262146 967.951416,584.269958 963.466797,583.429077 
	C950.575806,581.012024 946.048523,568.553955 947.596863,555.681213 
	C948.824707,545.472961 951.177246,535.404297 952.657043,525.219421 
	C953.080383,522.305603 952.203125,519.202698 951.922241,516.186523 
	C949.328979,517.912598 945.974915,519.090088 944.269043,521.455933 
	C934.912781,534.432495 929.118347,549.097229 924.948303,564.465027 
	C923.819580,568.624878 922.520935,572.755554 921.008240,576.790161 
	C918.885315,582.452332 914.324036,584.137268 908.634521,584.046997 
	C903.279663,583.962036 899.922485,581.263794 897.882141,576.594482 
	C897.035950,574.657959 896.375671,572.640198 895.604980,570.590576 
	C874.904846,589.695251 857.919312,588.686157 846.697998,567.351318 
	C825.057251,589.575745 811.793884,590.333618 794.188110,570.797852 
	C786.220459,574.442200 778.651917,578.712524 770.560730,581.421448 
	C757.353699,585.843079 743.868408,585.580261 731.191772,579.333313 
	C716.607727,572.146423 710.098511,559.267883 709.363220,543.700073 
	C708.452087,524.409363 713.819580,507.063721 728.745483,493.816803 
	C738.672729,485.006195 750.253540,480.688782 763.690063,483.094330 
	C770.833435,484.373169 776.327087,488.209381 779.422729,494.901581 
	C783.423828,503.551239 783.367065,512.336182 779.303345,520.929138 
	C778.272278,523.109253 776.553711,525.157532 774.687683,526.709106 
	C770.837402,529.910645 766.313477,529.978577 762.048584,527.715942 
	C758.023560,525.580688 758.755127,521.534912 759.175781,517.901184 
	C759.403381,515.935547 760.511841,514.016296 760.475769,512.090088 
	C760.431763,509.747192 760.350159,506.402252 758.917542,505.346985 
	C757.201843,504.083191 753.390686,503.745453 751.644653,504.845001 
	C748.124451,507.061890 744.551270,510.034302 742.489929,513.565002 
	C737.119385,522.763794 735.739502,533.082153 737.387878,543.511047 
	C739.992920,559.993225 751.522705,563.385010 766.036743,560.389160 
	C770.479370,559.472229 774.643250,556.949829 778.778137,554.853699 
	C785.882446,551.252197 789.405701,545.973511 790.375549,537.384277 
	C793.378906,510.784851 814.505371,487.699493 839.014709,482.727661 
	C842.074646,482.106934 845.416870,481.679108 848.401917,482.282257 
	C850.636108,482.733673 853.495544,484.573853 854.314331,486.532440 
	C855.660950,489.753143 857.423767,490.310059 860.405151,489.987000 
	C862.852783,489.721802 865.380798,489.574463 867.809631,489.880157 
	C874.272827,490.693665 876.788086,494.053711 875.709900,500.534058 
	C873.692566,512.658630 871.350342,524.730286 869.433411,536.869751 
	C868.554749,542.434204 868.046326,548.101685 867.950500,553.732300 
	C867.857788,559.184204 872.266357,562.226440 876.585022,559.160400 
	C882.729736,554.797974 888.168640,549.327332 893.357544,543.811279 
	C894.685181,542.399841 893.939392,539.037842 894.159180,536.116760 
M843.989380,530.487915 
	C845.790039,521.193115 847.590698,511.898346 849.495422,502.066315 
	C839.050842,503.326477 832.144043,508.160797 826.972961,515.510071 
	C818.746460,527.201782 814.583984,540.170166 817.043030,554.480957 
	C818.434448,562.578064 827.221558,565.017944 833.067261,559.141785 
	C835.570374,556.625610 837.790161,553.389526 838.945374,550.065796 
	C841.059082,543.984253 842.285767,537.594421 843.989380,530.487915 
M920.231567,530.652893 
	C920.316833,530.924927 920.402039,531.197021 920.487366,531.469055 
	C920.505859,531.085693 920.524353,530.702332 920.231567,530.652893 
z"/>
<path fill="#FFD36B" opacity="1.000000" stroke="none" 
	d="
M149.538025,405.449341 
	C172.123001,398.084412 194.442459,397.056274 216.300842,406.125519 
	C240.714798,416.255127 245.710983,437.591034 238.849152,459.297638 
	C236.248901,467.523132 228.866440,471.064209 221.069397,468.849243 
	C215.451828,467.253448 211.995956,462.981750 212.094666,457.113312 
	C212.169998,452.636383 212.709686,448.164246 213.115265,443.696564 
	C213.811966,436.021912 210.312256,430.593628 203.478378,427.870789 
	C187.388321,421.460022 171.215118,421.616394 155.698135,429.603699 
	C142.637009,436.326813 138.870087,457.718536 155.510376,468.591278 
	C163.234787,473.638397 172.032211,477.074432 180.438568,481.038605 
	C190.069321,485.580200 200.025620,489.475403 209.457535,494.386871 
	C245.153702,512.974854 237.315704,557.096130 212.736847,572.125061 
	C203.035751,578.056885 192.699814,581.833801 181.548935,583.433960 
	C163.374039,586.042236 145.383347,585.621826 127.865562,579.364197 
	C105.593834,571.408386 95.549576,553.775879 100.109993,530.699585 
	C102.306870,519.583069 110.527122,513.851990 120.161774,516.719604 
	C126.112488,518.490784 129.018265,522.265076 128.809738,528.492126 
	C128.676498,532.470764 128.109131,536.434570 127.748375,540.406067 
	C127.032913,548.282654 130.742096,553.499207 137.730865,556.541443 
	C149.396545,561.619568 161.740509,562.049133 174.013321,560.419189 
	C180.466782,559.562195 187.116898,557.560059 192.862411,554.528748 
	C205.992111,547.601501 207.728134,529.041077 195.412918,520.885071 
	C184.998734,513.988098 173.081070,509.289062 161.632660,504.045502 
	C149.379898,498.433533 136.992096,493.448730 126.937866,483.794312 
	C110.015488,467.544861 111.327812,438.152222 125.570648,421.878601 
	C132.089005,414.430817 140.010971,409.142456 149.538025,405.449341 
z"/>
<path fill="#FFD46C" opacity="1.000000" stroke="none" 
	d="
M529.004639,777.222107 
	C540.482422,777.384766 551.480408,777.207153 562.434448,777.817505 
	C571.161560,778.303833 576.157471,783.735596 578.111084,792.111389 
	C578.325745,793.031494 578.809753,793.888733 579.416321,795.386353 
	C587.636597,788.798157 595.528870,782.480530 603.412354,776.151917 
	C608.344116,772.192688 613.209961,768.149353 618.199219,764.264343 
	C626.328247,757.934631 635.754700,758.477417 641.832825,765.510498 
	C648.368835,773.073364 648.075562,785.351746 640.669678,791.673340 
	C629.405762,801.287964 617.828552,810.537048 606.343079,819.890503 
	C592.922913,830.819519 579.319824,841.528931 566.061218,852.649597 
	C557.166077,860.110474 546.467590,862.203247 535.620544,863.916931 
	C521.810669,866.098877 508.555542,863.302551 495.443939,858.977966 
	C476.656128,852.781067 457.836914,846.645630 438.846252,841.119202 
	C433.448364,839.548401 427.408386,840.184204 421.590912,839.803345 
	C421.293427,841.208679 421.068970,841.826050 421.044434,842.451294 
	C420.665588,852.109009 420.671600,852.109558 411.176331,852.109924 
	C400.845947,852.110291 390.515503,852.129395 380.185211,852.102417 
	C374.114471,852.086548 373.022705,851.076050 373.017181,845.263977 
	C372.991425,818.105042 372.992157,790.946167 373.016541,763.787231 
	C373.021759,757.987061 374.120392,756.932617 380.172272,756.906860 
	C391.002289,756.860840 401.832703,756.884338 412.662933,756.895874 
	C420.393555,756.904114 420.882050,757.399231 421.013763,765.053833 
	C421.030823,766.045410 421.129486,767.035461 421.230377,768.678467 
	C428.146179,768.771545 434.810547,769.648560 441.579102,766.499329 
	C461.926086,757.032288 482.286163,756.319824 502.281616,767.788086 
	C503.579681,768.532532 505.242004,769.079163 506.028015,770.209412 
	C511.746460,778.432068 520.218445,777.462830 529.004639,777.222107 
M575.368286,832.889343 
	C594.703613,817.102905 614.045654,801.324646 633.369019,785.523560 
	C637.652527,782.020874 638.309326,776.421021 635.009827,772.285522 
	C631.679749,768.111755 628.190002,768.179016 622.957947,772.433289 
	C611.984253,781.356384 600.844910,790.082581 590.044067,799.209717 
	C579.755249,807.904053 569.044067,814.608704 554.678833,813.917847 
	C541.049683,813.262390 527.364258,813.800293 513.703796,813.748657 
	C511.900269,813.741821 509.786499,813.860474 508.381561,812.999207 
	C506.927704,812.107910 505.249023,810.030701 505.348358,808.587891 
	C505.451080,807.095459 507.353210,805.384338 508.883545,804.446838 
	C510.002411,803.761353 511.793488,804.107910 513.285034,804.106262 
	C528.278442,804.089478 543.271790,804.106201 558.265198,804.091309 
	C565.747375,804.083801 569.049988,801.393188 568.984619,795.430176 
	C568.921326,789.657898 565.412781,786.920959 557.989685,786.910706 
	C546.827942,786.895325 535.656738,786.623535 524.507446,786.996826 
	C515.684875,787.292236 507.513397,786.698975 501.698181,778.858765 
	C501.045563,777.978760 499.837769,777.471802 498.824615,776.903870 
	C485.669159,769.529358 471.749878,766.510010 457.057739,770.981995 
	C445.407776,774.527954 434.404358,780.726135 421.450073,777.511108 
	C421.450073,795.917236 421.450073,813.261597 421.450073,829.308655 
	C431.347961,831.097839 440.784821,832.022034 449.750488,834.590820 
	C467.158966,839.578552 484.313965,845.455566 501.552917,851.029236 
	C517.202881,856.089172 532.812134,856.884460 548.498169,851.136230 
	C558.774719,847.370300 566.524963,839.975403 575.368286,832.889343 
M411.898895,820.500000 
	C411.898895,802.558899 411.898895,784.617798 411.898895,766.433228 
	C401.732330,766.433228 392.182281,766.433228 382.405334,766.433228 
	C382.405334,791.992310 382.405334,817.218628 382.405334,842.679688 
	C392.264221,842.679688 401.817383,842.679688 411.898743,842.679688 
	C411.898743,835.414612 411.898743,828.457214 411.898895,820.500000 
z"/>
<path fill="#FFD46D" opacity="1.000000" stroke="none" 
	d="
M590.734375,662.288330 
	C603.817871,678.113525 607.764832,695.858215 601.540161,714.885681 
	C594.979858,734.939392 580.498047,747.775024 559.734375,751.406494 
	C535.133545,755.708984 514.019226,745.244385 502.299072,724.393677 
	C490.683624,703.729187 493.710785,678.648865 509.548462,661.385498 
	C530.825439,638.193237 568.729248,637.218201 590.734375,662.288330 
M532.785522,739.938232 
	C549.425964,745.814148 565.144409,744.072571 578.737488,732.636047 
	C592.417480,721.126221 597.492004,706.082153 594.015381,688.314636 
	C590.564880,670.680664 575.525940,656.643433 556.207031,653.234192 
	C539.562744,650.297058 520.211426,659.578979 511.298065,674.191162 
	C497.530304,696.761230 505.676666,728.077087 532.785522,739.938232 
z"/>
<path fill="#FFD36B" opacity="1.000000" stroke="none" 
	d="
M444.755096,437.553406 
	C450.746368,433.987213 456.973541,434.242828 462.972565,435.479034 
	C468.380493,436.593384 472.939423,439.750977 473.862671,445.775330 
	C474.908661,452.600677 474.106384,459.152863 468.137177,463.802368 
	C461.221313,469.189240 453.218506,469.456970 445.422516,466.966248 
	C435.244781,463.714630 432.298676,450.226898 439.548431,441.940155 
	C440.945923,440.342773 442.797272,439.142487 444.755096,437.553406 
z"/>
<path fill="#FFFEFC" opacity="1.000000" stroke="none" 
	d="
M391.647491,447.643433 
	C395.207611,435.626953 398.511902,423.972015 402.166016,412.427826 
	C403.097992,409.483368 404.866241,406.686310 406.735168,404.183594 
	C409.427612,400.578003 413.500427,401.043549 414.720734,405.312531 
	C415.980530,409.719543 416.770355,414.465759 416.638763,419.031097 
	C415.980865,441.853638 409.094269,463.146637 399.595184,483.645660 
	C394.921997,493.730469 389.573578,503.502411 383.861847,513.214783 
	C383.767914,491.098511 386.822510,469.476074 391.647491,447.643433 
z"/>
<path fill="#FFFEFD" opacity="1.000000" stroke="none" 
	d="
M287.597778,512.601013 
	C290.257385,510.092010 292.479156,507.547028 295.181122,505.707275 
	C300.785187,501.891541 306.850006,504.176758 309.045715,510.614868 
	C314.456055,526.478638 301.597565,555.291748 286.193451,561.743347 
	C284.869110,562.297913 283.425232,562.567017 281.227386,563.203003 
	C281.445374,559.572449 281.755615,556.526367 281.787109,553.477356 
	C281.876190,544.839844 282.232849,536.179199 281.740509,527.570251 
	C281.397156,521.567078 283.229950,516.909912 287.597778,512.601013 
z"/>
<path fill="#FFFEFB" opacity="1.000000" stroke="none" 
	d="
M236.040222,655.642029 
	C236.271744,645.856201 235.708008,636.328674 237.129700,627.107117 
	C239.977280,608.636719 246.895859,591.312134 254.990646,574.245605 
	C254.702927,578.034851 254.335968,581.820129 254.149689,585.614380 
	C253.961960,589.438965 254.247925,593.305847 253.815567,597.095947 
	C251.972275,613.254639 250.060181,629.407898 247.882782,645.523987 
	C247.401825,649.083862 246.041550,652.627869 244.492828,655.898254 
	C243.687943,657.597900 241.738861,659.406616 240.013779,659.767944 
	C239.027267,659.974670 237.452805,657.374878 236.040222,655.642029 
z"/>
<path fill="#FFFEFC" opacity="1.000000" stroke="none" 
	d="
M525.119873,469.093994 
	C522.622498,471.658844 520.350830,473.947388 518.079163,476.235931 
	C517.610535,475.995819 517.141846,475.755707 516.673157,475.515594 
	C517.813049,468.744324 518.451294,461.839752 520.206848,455.232086 
	C523.057983,444.500824 526.427795,433.890747 530.036987,423.387024 
	C531.211914,419.967834 533.094482,415.252502 537.677856,416.187622 
	C542.407715,417.152527 541.645325,422.417603 541.724670,425.909821 
	C542.063599,440.818848 536.407288,453.796906 527.780396,465.649689 
	C526.996887,466.726135 526.158569,467.762665 525.119873,469.093994 
z"/>
<path fill="#FFFEFC" opacity="1.000000" stroke="none" 
	d="
M843.935852,530.910522 
	C842.285767,537.594421 841.059082,543.984253 838.945374,550.065796 
	C837.790161,553.389526 835.570374,556.625610 833.067261,559.141785 
	C827.221558,565.017944 818.434448,562.578064 817.043030,554.480957 
	C814.583984,540.170166 818.746460,527.201782 826.972961,515.510071 
	C832.144043,508.160797 839.050842,503.326477 849.495422,502.066315 
	C847.590698,511.898346 845.790039,521.193115 843.935852,530.910522 
z"/>
<path fill="#FFFFFF" opacity="1.000000" stroke="none" 
	d="
M920.387207,530.485962 
	C920.524353,530.702332 920.505859,531.085693 920.487305,531.469055 
	C920.402039,531.197021 920.316833,530.924927 920.387207,530.485962 
z"/>
<path fill="#FFFFFE" opacity="1.000000" stroke="none" 
	d="
M575.070923,833.081238 
	C566.524963,839.975403 558.774719,847.370300 548.498169,851.136230 
	C532.812134,856.884460 517.202881,856.089172 501.552917,851.029236 
	C484.313965,845.455566 467.158966,839.578552 449.750488,834.590820 
	C440.784821,832.022034 431.347961,831.097839 421.450073,829.308655 
	C421.450073,813.261597 421.450073,795.917236 421.450073,777.511108 
	C434.404358,780.726135 445.407776,774.527954 457.057739,770.981995 
	C471.749878,766.510010 485.669159,769.529358 498.824615,776.903870 
	C499.837769,777.471802 501.045563,777.978760 501.698181,778.858765 
	C507.513397,786.698975 515.684875,787.292236 524.507446,786.996826 
	C535.656738,786.623535 546.827942,786.895325 557.989685,786.910706 
	C565.412781,786.920959 568.921326,789.657898 568.984619,795.430176 
	C569.049988,801.393188 565.747375,804.083801 558.265198,804.091309 
	C543.271790,804.106201 528.278442,804.089478 513.285034,804.106262 
	C511.793488,804.107910 510.002411,803.761353 508.883545,804.446838 
	C507.353210,805.384338 505.451080,807.095459 505.348358,808.587891 
	C505.249023,810.030701 506.927704,812.107910 508.381561,812.999207 
	C509.786499,813.860474 511.900269,813.741821 513.703796,813.748657 
	C527.364258,813.800293 541.049683,813.262390 554.678833,813.917847 
	C569.044067,814.608704 579.755249,807.904053 590.044067,799.209717 
	C600.844910,790.082581 611.984253,781.356384 622.957947,772.433289 
	C628.190002,768.179016 631.679749,768.111755 635.009827,772.285522 
	C638.309326,776.421021 637.652527,782.020874 633.369019,785.523560 
	C614.045654,801.324646 594.703613,817.102905 575.070923,833.081238 
z"/>
<path fill="#FFFEFC" opacity="1.000000" stroke="none" 
	d="
M411.898804,820.999939 
	C411.898743,828.457214 411.898743,835.414612 411.898743,842.679688 
	C401.817383,842.679688 392.264221,842.679688 382.405334,842.679688 
	C382.405334,817.218628 382.405334,791.992310 382.405334,766.433228 
	C392.182281,766.433228 401.732330,766.433228 411.898895,766.433228 
	C411.898895,784.617798 411.898895,802.558899 411.898804,820.999939 
z"/>
<path fill="#FFFEFD" opacity="1.000000" stroke="none" 
	d="
M532.431335,739.782349 
	C505.676666,728.077087 497.530304,696.761230 511.298065,674.191162 
	C520.211426,659.578979 539.562744,650.297058 556.207031,653.234192 
	C575.525940,656.643433 590.564880,670.680664 594.015381,688.314636 
	C597.492004,706.082153 592.417480,721.126221 578.737488,732.636047 
	C565.144409,744.072571 549.425964,745.814148 532.431335,739.782349 
M552.517334,704.975830 
	C554.410522,707.102539 557.251892,708.947937 557.985168,711.418823 
	C559.230469,715.615601 556.532898,718.232422 551.588806,718.927551 
	C545.859985,719.732971 541.866089,717.366821 541.188110,712.342834 
	C540.747559,709.078857 539.716370,706.578064 536.044983,707.221863 
	C532.605774,707.824951 531.818237,710.687805 532.222290,713.782654 
	C532.940369,719.281921 535.695862,723.518799 540.815308,725.781128 
	C543.567688,726.997375 545.416199,728.049500 545.537781,731.679321 
	C545.596252,733.426636 548.190186,736.262756 549.947632,736.526123 
	C553.236816,737.018860 553.859009,734.057556 554.246155,731.129211 
	C554.451111,729.578979 555.742737,727.505066 557.098755,726.888794 
	C563.249573,724.093506 567.253113,719.746277 567.556580,712.911743 
	C567.859558,706.086426 564.234436,701.411743 558.367371,698.116699 
	C553.731201,695.512939 548.977722,692.907471 544.969849,689.489563 
	C543.123718,687.915161 541.944885,684.243713 542.319092,681.808228 
	C542.603760,679.955750 545.589905,677.689026 547.770996,677.115173 
	C553.958313,675.487183 557.210754,678.105652 558.296448,684.499817 
	C558.793701,687.428528 559.982239,690.795654 563.442993,689.679810 
	C565.345276,689.066467 567.451416,685.648499 567.519348,683.435425 
	C567.712830,677.125916 564.515564,672.242493 558.630310,669.658508 
	C556.060852,668.530334 554.893005,667.304382 554.526978,664.301697 
	C554.300903,662.447327 551.705627,660.881714 550.174011,659.186462 
	C548.750793,660.890564 547.256653,662.541443 545.925903,664.314880 
	C544.781433,665.840027 544.191711,668.226013 542.717102,668.979431 
	C537.303040,671.745789 533.582092,675.423401 532.970947,681.793701 
	C532.274963,689.048218 535.023193,694.388428 541.265320,698.061523 
	C544.849182,700.170471 548.365601,702.393921 552.517334,704.975830 
z"/>
<path fill="#FFD56E" opacity="1.000000" stroke="none" 
	d="
M552.214844,704.770813 
	C548.365601,702.393921 544.849182,700.170471 541.265320,698.061523 
	C535.023193,694.388428 532.274963,689.048218 532.970947,681.793701 
	C533.582092,675.423401 537.303040,671.745789 542.717102,668.979431 
	C544.191711,668.226013 544.781433,665.840027 545.925903,664.314880 
	C547.256653,662.541443 548.750793,660.890564 550.174011,659.186462 
	C551.705627,660.881714 554.300903,662.447327 554.526978,664.301697 
	C554.893005,667.304382 556.060852,668.530334 558.630310,669.658508 
	C564.515564,672.242493 567.712830,677.125916 567.519348,683.435425 
	C567.451416,685.648499 565.345276,689.066467 563.442993,689.679810 
	C559.982239,690.795654 558.793701,687.428528 558.296448,684.499817 
	C557.210754,678.105652 553.958313,675.487183 547.770996,677.115173 
	C545.589905,677.689026 542.603760,679.955750 542.319092,681.808228 
	C541.944885,684.243713 543.123718,687.915161 544.969849,689.489563 
	C548.977722,692.907471 553.731201,695.512939 558.367371,698.116699 
	C564.234436,701.411743 567.859558,706.086426 567.556580,712.911743 
	C567.253113,719.746277 563.249573,724.093506 557.098755,726.888794 
	C555.742737,727.505066 554.451111,729.578979 554.246155,731.129211 
	C553.859009,734.057556 553.236816,737.018860 549.947632,736.526123 
	C548.190186,736.262756 545.596252,733.426636 545.537781,731.679321 
	C545.416199,728.049500 543.567688,726.997375 540.815308,725.781128 
	C535.695862,723.518799 532.940369,719.281921 532.222290,713.782654 
	C531.818237,710.687805 532.605774,707.824951 536.044983,707.221863 
	C539.716370,706.578064 540.747559,709.078857 541.188110,712.342834 
	C541.866089,717.366821 545.859985,719.732971 551.588806,718.927551 
	C556.532898,718.232422 559.230469,715.615601 557.985168,711.418823 
	C557.251892,708.947937 554.410522,707.102539 552.214844,704.770813 
z"/>
</svg>